<?xml version="1.0" standalone="no"?>
<!DOCTYPE svg PUBLIC "-//W3C//DTD SVG 20010904//EN"
 "http://www.w3.org/TR/2001/REC-SVG-20010904/DTD/svg10.dtd">
<svg version="1.0" xmlns="http://www.w3.org/2000/svg"
 width="512.000000pt" height="512.000000pt" viewBox="0 0 512.000000 512.000000"
 preserveAspectRatio="xMidYMid meet">

<g transform="translate(0.000000,512.000000) scale(0.100000,-0.100000)"
fill="#000000" stroke="none">
<path d="M304 4639 c-51 -14 -125 -70 -161 -120 -62 -87 -63 -102 -63 -727 l0
-563 -30 -38 c-17 -20 -35 -53 -40 -72 -6 -21 -10 -495 -10 -1287 0 -1390 -4
-1301 64 -1343 30 -18 92 -19 2021 -19 1978 0 1990 0 2023 20 61 37 62 46 62
498 l0 408 229 207 c126 114 248 228 271 253 79 86 114 200 99 326 -6 53 -28
104 -134 318 -163 327 -165 342 -69 505 37 63 41 66 71 61 57 -8 165 13 233
46 78 38 158 115 194 186 53 104 56 136 56 532 0 407 -1 412 -69 457 -31 21
-45 23 -167 23 l-134 0 0 95 0 95 160 0 c157 0 161 1 185 25 30 30 32 64 4 99
l-20 26 -1979 0 -1979 0 -21 -27 c-16 -20 -20 -36 -16 -58 14 -65 -137 -60
1776 -63 l1740 -2 0 -95 0 -95 -130 0 c-141 0 -165 -6 -210 -55 l-25 -27 0
-411 c0 -410 0 -412 24 -470 28 -70 89 -149 152 -196 l46 -33 -43 -76 c-65
-113 -80 -215 -48 -321 8 -30 69 -161 135 -293 112 -226 119 -243 119 -299 0
-112 -18 -137 -241 -339 -109 -99 -200 -180 -203 -180 -3 0 -6 331 -6 736 0
554 -3 747 -12 778 -16 53 -84 121 -134 135 -22 6 -94 11 -161 11 l-123 0 -6
28 c-3 15 -10 43 -15 62 -15 59 -10 114 22 258 40 178 32 226 -44 272 -42 26
-86 25 -215 -4 -160 -37 -197 -39 -277 -18 -99 27 -145 8 -145 -61 0 -42 30
-66 110 -87 100 -26 162 -25 308 7 67 14 124 24 127 21 3 -2 -10 -71 -27 -152
l-32 -147 22 -113 c21 -106 22 -140 22 -580 0 -400 -2 -476 -16 -534 -10 -37
-18 -69 -20 -71 -2 -2 -22 12 -46 31 -107 86 -250 151 -401 182 -56 12 -134
16 -292 16 l-215 0 0 43 c0 35 6 49 30 72 65 62 148 216 165 306 5 28 14 40
41 53 19 9 57 37 84 62 130 121 170 273 110 413 -33 76 -126 151 -189 151 -18
0 -19 11 -23 223 -4 196 -7 228 -25 274 -30 75 -85 145 -145 186 -104 72 -100
71 -528 75 -265 2 -404 0 -445 -8 -149 -29 -256 -125 -307 -275 l-17 -50 -153
-6 c-84 -4 -169 -12 -188 -18 -102 -33 -153 -33 -297 -1 -76 16 -154 30 -173
30 -44 0 -94 -30 -121 -72 -25 -42 -23 -88 16 -269 l29 -136 -19 -81 -18 -82
-99 0 -99 0 3 558 3 558 25 37 c13 20 41 45 61 56 34 20 53 21 272 21 222 0
236 1 261 21 33 26 36 79 6 109 -19 19 -33 20 -272 19 -139 0 -267 -5 -284
-10z m4666 -584 l0 -105 -295 0 -295 0 0 105 0 105 295 0 295 0 0 -105z m-2
-432 c-5 -205 -19 -254 -90 -319 -164 -148 -403 -95 -479 106 -16 42 -19 78
-19 220 l0 170 296 0 296 0 -4 -177z m-4128 80 c58 -4 93 0 154 16 63 16 110
21 218 21 l138 0 0 -130 c0 -128 0 -130 -22 -130 -38 -1 -101 -35 -141 -76
-86 -89 -101 -238 -38 -363 37 -72 109 -150 169 -180 36 -18 42 -28 57 -78 23
-81 86 -197 145 -270 39 -48 50 -70 50 -97 l0 -36 -219 0 c-223 0 -293 -8
-407 -45 -79 -26 -204 -91 -269 -140 -42 -32 -61 -41 -66 -32 -4 6 -14 47 -23
89 -13 64 -16 153 -16 515 0 399 2 446 20 527 26 119 25 176 -9 332 l-28 131
106 -24 c58 -13 140 -27 181 -30z m1632 -29 c57 -19 120 -72 154 -130 19 -33
28 -65 33 -129 7 -69 13 -91 31 -110 30 -32 70 -32 109 0 l30 26 32 -29 c26
-23 32 -38 36 -79 7 -67 -11 -117 -60 -170 -44 -48 -84 -73 -116 -73 -30 0
-57 -43 -71 -112 -24 -122 -95 -242 -194 -327 -147 -127 -366 -169 -551 -107
-200 68 -348 230 -389 427 -19 92 -29 107 -80 120 -93 23 -171 123 -171 219 0
59 18 95 57 116 19 10 27 9 51 -12 34 -29 67 -31 97 -6 18 14 24 33 30 98 16
152 75 236 199 280 57 21 712 19 773 -2z m-2050 -996 c3 -403 5 -449 22 -506
28 -90 12 -181 -54 -317 -56 -115 -86 -213 -100 -335 l-11 -85 -64 -62 -65
-63 0 885 c0 872 0 885 20 905 18 18 33 20 135 20 l114 0 3 -442z m3573 417
l25 -24 0 -804 0 -805 -44 -35 -43 -36 -25 27 c-20 22 -27 41 -31 97 -9 105
-42 218 -96 330 -72 149 -86 239 -54 345 14 47 17 121 20 493 l4 437 110 0
c103 0 111 -1 134 -25z m-2115 -816 c62 -20 96 -24 200 -24 134 0 210 15 308
60 l52 24 0 -76 c0 -121 25 -113 -360 -113 -240 0 -329 3 -338 12 -7 7 -12 44
-12 95 l0 83 38 -19 c20 -10 71 -30 112 -42z m-301 -111 c11 -54 19 -69 61
-110 70 -67 93 -70 475 -66 320 3 320 3 365 28 60 34 101 95 108 159 l5 51
197 0 c131 0 223 -5 272 -14 264 -52 467 -206 583 -441 38 -78 80 -203 71
-212 -1 -2 -38 17 -81 42 -199 113 -429 183 -676 205 -64 5 -440 10 -852 10
l-739 0 -29 -29 c-16 -16 -29 -39 -29 -51 0 -12 13 -35 29 -51 l29 -29 787 0
c866 0 897 -2 1098 -61 105 -31 275 -107 362 -162 143 -89 288 -221 337 -307
48 -83 58 -138 58 -332 l0 -178 -1925 0 -1925 0 0 183 c0 209 11 259 80 365
66 103 286 270 463 351 83 39 229 89 325 111 56 13 82 38 82 78 0 34 -18 62
-47 73 -62 23 -404 -95 -565 -197 -21 -13 -40 -24 -44 -24 -11 0 7 73 38 153
88 228 304 423 539 486 106 28 103 28 329 30 l206 1 13 -62z"/>
<path d="M1718 3311 c-64 -57 -29 -151 57 -151 70 0 109 61 80 123 -29 61 -87
73 -137 28z"/>
<path d="M2347 3324 c-51 -28 -60 -86 -21 -133 21 -25 33 -31 65 -31 84 0 120
91 60 151 -33 32 -62 36 -104 13z"/>
<path d="M1903 2916 c-37 -17 -51 -54 -37 -95 16 -43 46 -51 210 -51 138 0
154 2 178 21 32 25 35 75 7 110 -18 23 -25 24 -173 27 -116 2 -161 -1 -185
-12z"/>
</g>
</svg>
