<?xml version="1.0" standalone="no"?>
<!DOCTYPE svg PUBLIC "-//W3C//DTD SVG 20010904//EN"
 "http://www.w3.org/TR/2001/REC-SVG-20010904/DTD/svg10.dtd">
<svg version="1.0" xmlns="http://www.w3.org/2000/svg"
 width="512.000000pt" height="512.000000pt" viewBox="0 0 512.000000 512.000000"
 preserveAspectRatio="xMidYMid meet">

<g transform="translate(0.000000,512.000000) scale(0.100000,-0.100000)"
fill="#000000" stroke="none">
<path d="M1766 5110 c-251 -40 -509 -184 -660 -369 -166 -202 -247 -423 -249
-676 -3 -246 67 -460 212 -652 144 -191 342 -325 579 -391 88 -24 113 -27 272
-27 151 0 186 3 260 23 310 84 558 285 694 565 204 415 122 903 -206 1228
-134 133 -302 228 -486 275 -109 28 -313 40 -416 24z"/>
<path d="M885 2544 c-388 -69 -703 -341 -831 -716 -49 -144 -55 -229 -52 -675
3 -398 4 -412 24 -439 11 -15 33 -37 48 -48 27 -21 34 -21 1173 -24 l1146 -2
-44 47 c-91 98 -160 225 -195 358 -22 87 -26 357 -5 450 78 355 376 612 735
634 l101 6 6 95 c6 95 25 185 54 253 l15 36 -53 10 c-28 6 -79 16 -112 21 -36
6 -428 10 -995 9 -763 -1 -950 -3 -1015 -15z"/>
<path d="M3689 2547 c-107 -30 -210 -122 -251 -225 -21 -53 -22 -75 -26 -334
l-4 -276 -276 -4 c-260 -4 -281 -5 -334 -27 -81 -31 -159 -106 -200 -189 -33
-66 -33 -68 -33 -212 0 -144 0 -146 33 -212 41 -83 119 -158 200 -189 53 -22
74 -23 334 -27 l276 -4 4 -276 c4 -260 5 -281 27 -334 31 -81 106 -159 189
-200 66 -33 68 -33 212 -33 144 0 146 0 212 33 83 41 158 119 189 200 22 53
23 74 27 334 l4 276 276 4 c260 4 281 5 334 27 81 31 159 106 200 189 33 66
33 68 33 212 0 144 0 146 -33 212 -41 83 -119 158 -200 189 -53 22 -74 23
-334 27 l-276 4 -4 276 c-4 260 -5 281 -27 334 -31 80 -106 159 -188 200 -63
31 -73 33 -192 35 -81 2 -142 -2 -172 -10z"/>
</g>
</svg>
